{
    "asset" : {
        "generator" : "Khronos glTF Blender I/O v1.2.75",
        "version" : "2.0"
    },
    "scene" : 0,
    "scenes" : [
        {
            "name" : "Scene",
            "nodes" : [
                0,
                1,
                2,
                3,
                4,
                5,
                6
            ]
        }
    ],
    "nodes" : [
        {
            "mesh" : 0,
            "name" : "Cube"
        },
        {
            "mesh" : 1,
            "name" : "Cube.002"
        },
        {
            "mesh" : 2,
            "name" : "Cube.003"
        },
        {
            "mesh" : 3,
            "name" : "Cube.004"
        },
        {
            "mesh" : 4,
            "name" : "Cube.005"
        },
        {
            "mesh" : 5,
            "name" : "Cube.006"
        },
        {
            "mesh" : 6,
            "name" : "Cube.007"
        }
    ],
    "materials" : [
        {
            "doubleSided" : true,
            "emissiveFactor" : [
                0,
                0,
                0
            ],
            "name" : "Material.001",
            "pbrMetallicRoughness" : {
                "baseColorFactor" : [
                    0.22285602986812592,
                    0.22285602986812592,
                    0.22285602986812592,
                    1
                ],
                "metallicFactor" : 0,
                "roughnessFactor" : 0.5
            }
        }
    ],
    "meshes" : [
        {
            "name" : "Cube.002",
            "primitives" : [
                {
                    "attributes" : {
                        "POSITION" : 0,
                        "NORMAL" : 1,
                        "TEXCOORD_0" : 2
                    },
                    "indices" : 3,
                    "material" : 0
                }
            ]
        },
        {
            "name" : "Cube.004",
            "primitives" : [
                {
                    "attributes" : {
                        "POSITION" : 4,
                        "NORMAL" : 5,
                        "TEXCOORD_0" : 6
                    },
                    "indices" : 7,
                    "material" : 0
                }
            ]
        },
        {
            "name" : "Cube.005",
            "primitives" : [
                {
                    "attributes" : {
                        "POSITION" : 8,
                        "NORMAL" : 9,
                        "TEXCOORD_0" : 10
                    },
                    "indices" : 11,
                    "material" : 0
                }
            ]
        },
        {
            "name" : "Cube.006",
            "primitives" : [
                {
                    "attributes" : {
                        "POSITION" : 12,
                        "NORMAL" : 13,
                        "TEXCOORD_0" : 14
                    },
                    "indices" : 15,
                    "material" : 0
                }
            ]
        },
        {
            "name" : "Cube.007",
            "primitives" : [
                {
                    "attributes" : {
                        "POSITION" : 16,
                        "NORMAL" : 17,
                        "TEXCOORD_0" : 18
                    },
                    "indices" : 19,
                    "material" : 0
                }
            ]
        },
        {
            "name" : "Cube.001",
            "primitives" : [
                {
                    "attributes" : {
                        "POSITION" : 20,
                        "NORMAL" : 21,
                        "TEXCOORD_0" : 22
                    },
                    "indices" : 23,
                    "material" : 0
                }
            ]
        },
        {
            "name" : "Cube.008",
            "primitives" : [
                {
                    "attributes" : {
                        "POSITION" : 24,
                        "NORMAL" : 25,
                        "TEXCOORD_0" : 26
                    },
                    "indices" : 27,
                    "material" : 0
                }
            ]
        }
    ],
    "accessors" : [
        {
            "bufferView" : 0,
            "componentType" : 5126,
            "count" : 384,
            "max" : [
                -11.233009338378906,
                1.0680592060089111,
                8.160521507263184
            ],
            "min" : [
                -14.472460746765137,
                -1.5461879968643188,
                4.621460914611816
            ],
            "type" : "VEC3"
        },
        {
            "bufferView" : 1,
            "componentType" : 5126,
            "count" : 384,
            "type" : "VEC3"
        },
        {
            "bufferView" : 2,
            "componentType" : 5126,
            "count" : 384,
            "type" : "VEC2"
        },
        {
            "bufferView" : 3,
            "componentType" : 5123,
            "count" : 576,
            "type" : "SCALAR"
        },
        {
            "bufferView" : 4,
            "componentType" : 5126,
            "count" : 392,
            "max" : [
                -4.0908522605896,
                3.1261160373687744,
                6.864597797393799
            ],
            "min" : [
                -9.825087547302246,
                -1.1490092277526855,
                2.351182699203491
            ],
            "type" : "VEC3"
        },
        {
            "bufferView" : 5,
            "componentType" : 5126,
            "count" : 392,
            "type" : "VEC3"
        },
        {
            "bufferView" : 6,
            "componentType" : 5126,
            "count" : 392,
            "type" : "VEC2"
        },
        {
            "bufferView" : 7,
            "componentType" : 5123,
            "count" : 576,
            "type" : "SCALAR"
        },
        {
            "bufferView" : 8,
            "componentType" : 5126,
            "count" : 384,
            "max" : [
                -9.757002830505371,
                3.209352970123291,
                6.400172233581543
            ],
            "min" : [
                -12.946371078491211,
                0.7185267210006714,
                3.8688559532165527
            ],
            "type" : "VEC3"
        },
        {
            "bufferView" : 9,
            "componentType" : 5126,
            "count" : 384,
            "type" : "VEC3"
        },
        {
            "bufferView" : 10,
            "componentType" : 5126,
            "count" : 384,
            "type" : "VEC2"
        },
        {
            "bufferView" : 11,
            "componentType" : 5123,
            "count" : 576,
            "type" : "SCALAR"
        },
        {
            "bufferView" : 12,
            "componentType" : 5126,
            "count" : 384,
            "max" : [
                -9.831047058105469,
                2.857903003692627,
                8.995963096618652
            ],
            "min" : [
                -13.695959091186523,
                -0.40651237964630127,
                5.367598533630371
            ],
            "type" : "VEC3"
        },
        {
            "bufferView" : 13,
            "componentType" : 5126,
            "count" : 384,
            "type" : "VEC3"
        },
        {
            "bufferView" : 14,
            "componentType" : 5126,
            "count" : 384,
            "type" : "VEC2"
        },
        {
            "bufferView" : 15,
            "componentType" : 5123,
            "count" : 576,
            "type" : "SCALAR"
        },
        {
            "bufferView" : 16,
            "componentType" : 5126,
            "count" : 384,
            "max" : [
                -8.304866790771484,
                1.731827735900879,
                6.353177547454834
            ],
            "min" : [
                -12.75245475769043,
                -1.3272252082824707,
                2.225769519805908
            ],
            "type" : "VEC3"
        },
        {
            "bufferView" : 17,
            "componentType" : 5126,
            "count" : 384,
            "type" : "VEC3"
        },
        {
            "bufferView" : 18,
            "componentType" : 5126,
            "count" : 384,
            "type" : "VEC2"
        },
        {
            "bufferView" : 19,
            "componentType" : 5123,
            "count" : 576,
            "type" : "SCALAR"
        },
        {
            "bufferView" : 20,
            "componentType" : 5126,
            "count" : 384,
            "max" : [
                -4.854853630065918,
                6.103734970092773,
                10.715200424194336
            ],
            "min" : [
                -11.896236419677734,
                0.801694393157959,
                3.926968574523926
            ],
            "type" : "VEC3"
        },
        {
            "bufferView" : 21,
            "componentType" : 5126,
            "count" : 384,
            "type" : "VEC3"
        },
        {
            "bufferView" : 22,
            "componentType" : 5126,
            "count" : 384,
            "type" : "VEC2"
        },
        {
            "bufferView" : 23,
            "componentType" : 5123,
            "count" : 576,
            "type" : "SCALAR"
        },
        {
            "bufferView" : 24,
            "componentType" : 5126,
            "count" : 384,
            "max" : [
                -6.202166557312012,
                4.169114112854004,
                14.9637451171875
            ],
            "min" : [
                -14.280120849609375,
                -2.3475589752197266,
                7.380192756652832
            ],
            "type" : "VEC3"
        },
        {
            "bufferView" : 25,
            "componentType" : 5126,
            "count" : 384,
            "type" : "VEC3"
        },
        {
            "bufferView" : 26,
            "componentType" : 5126,
            "count" : 384,
            "type" : "VEC2"
        },
        {
            "bufferView" : 27,
            "componentType" : 5123,
            "count" : 576,
            "type" : "SCALAR"
        }
    ],
    "bufferViews" : [
        {
            "buffer" : 0,
            "byteLength" : 4608,
            "byteOffset" : 0
        },
        {
            "buffer" : 0,
            "byteLength" : 4608,
            "byteOffset" : 4608
        },
        {
            "buffer" : 0,
            "byteLength" : 3072,
            "byteOffset" : 9216
        },
        {
            "buffer" : 0,
            "byteLength" : 1152,
            "byteOffset" : 12288
        },
        {
            "buffer" : 0,
            "byteLength" : 4704,
            "byteOffset" : 13440
        },
        {
            "buffer" : 0,
            "byteLength" : 4704,
            "byteOffset" : 18144
        },
        {
            "buffer" : 0,
            "byteLength" : 3136,
            "byteOffset" : 22848
        },
        {
            "buffer" : 0,
            "byteLength" : 1152,
            "byteOffset" : 25984
        },
        {
            "buffer" : 0,
            "byteLength" : 4608,
            "byteOffset" : 27136
        },
        {
            "buffer" : 0,
            "byteLength" : 4608,
            "byteOffset" : 31744
        },
        {
            "buffer" : 0,
            "byteLength" : 3072,
            "byteOffset" : 36352
        },
        {
            "buffer" : 0,
            "byteLength" : 1152,
            "byteOffset" : 39424
        },
        {
            "buffer" : 0,
            "byteLength" : 4608,
            "byteOffset" : 40576
        },
        {
            "buffer" : 0,
            "byteLength" : 4608,
            "byteOffset" : 45184
        },
        {
            "buffer" : 0,
            "byteLength" : 3072,
            "byteOffset" : 49792
        },
        {
            "buffer" : 0,
            "byteLength" : 1152,
            "byteOffset" : 52864
        },
        {
            "buffer" : 0,
            "byteLength" : 4608,
            "byteOffset" : 54016
        },
        {
            "buffer" : 0,
            "byteLength" : 4608,
            "byteOffset" : 58624
        },
        {
            "buffer" : 0,
            "byteLength" : 3072,
            "byteOffset" : 63232
        },
        {
            "buffer" : 0,
            "byteLength" : 1152,
            "byteOffset" : 66304
        },
        {
            "buffer" : 0,
            "byteLength" : 4608,
            "byteOffset" : 67456
        },
        {
            "buffer" : 0,
            "byteLength" : 4608,
            "byteOffset" : 72064
        },
        {
            "buffer" : 0,
            "byteLength" : 3072,
            "byteOffset" : 76672
        },
        {
            "buffer" : 0,
            "byteLength" : 1152,
            "byteOffset" : 79744
        },
        {
            "buffer" : 0,
            "byteLength" : 4608,
            "byteOffset" : 80896
        },
        {
            "buffer" : 0,
            "byteLength" : 4608,
            "byteOffset" : 85504
        },
        {
            "buffer" : 0,
            "byteLength" : 3072,
            "byteOffset" : 90112
        },
        {
            "buffer" : 0,
            "byteLength" : 1152,
            "byteOffset" : 93184
        }
    ],
    "buffers" : [
        {
            "byteLength" : 94336,
            "uri" : "data:application/octet-stream;base64,"
        }
    ]
}
