{
    "asset" : {
        "generator" : "Khronos glTF Blender I/O v1.2.75",
        "version" : "2.0"
    },
    "scene" : 0,
    "scenes" : [
        {
            "name" : "Scene",
            "nodes" : [
                0,
                1,
                2
            ]
        }
    ],
    "nodes" : [
        {
            "mesh" : 0,
            "name" : "Cube.008"
        },
        {
            "mesh" : 1,
            "name" : "Cube.009"
        },
        {
            "mesh" : 2,
            "name" : "Cube.010"
        }
    ],
    "materials" : [
        {
            "doubleSided" : true,
            "emissiveFactor" : [
                0,
                0,
                0
            ],
            "name" : "Material.001",
            "pbrMetallicRoughness" : {
                "baseColorFactor" : [
                    0.22285602986812592,
                    0.22285602986812592,
                    0.22285602986812592,
                    1
                ],
                "metallicFactor" : 0,
                "roughnessFactor" : 0.5
            }
        }
    ],
    "meshes" : [
        {
            "name" : "Cube.009",
            "primitives" : [
                {
                    "attributes" : {
                        "POSITION" : 0,
                        "NORMAL" : 1,
                        "TEXCOORD_0" : 2
                    },
                    "indices" : 3,
                    "material" : 0
                }
            ]
        },
        {
            "name" : "Cube.010",
            "primitives" : [
                {
                    "attributes" : {
                        "POSITION" : 4,
                        "NORMAL" : 5,
                        "TEXCOORD_0" : 6
                    },
                    "indices" : 7,
                    "material" : 0
                }
            ]
        },
        {
            "name" : "Cube.011",
            "primitives" : [
                {
                    "attributes" : {
                        "POSITION" : 8,
                        "NORMAL" : 9,
                        "TEXCOORD_0" : 10
                    },
                    "indices" : 11,
                    "material" : 0
                }
            ]
        }
    ],
    "accessors" : [
        {
            "bufferView" : 0,
            "componentType" : 5126,
            "count" : 384,
            "max" : [
                0.27722644805908203,
                5.028629302978516,
                -11.280776977539062
            ],
            "min" : [
                -7.800727367401123,
                -1.488044023513794,
                -18.864328384399414
            ],
            "type" : "VEC3"
        },
        {
            "bufferView" : 1,
            "componentType" : 5126,
            "count" : 384,
            "type" : "VEC3"
        },
        {
            "bufferView" : 2,
            "componentType" : 5126,
            "count" : 384,
            "type" : "VEC2"
        },
        {
            "bufferView" : 3,
            "componentType" : 5123,
            "count" : 576,
            "type" : "SCALAR"
        },
        {
            "bufferView" : 4,
            "componentType" : 5126,
            "count" : 384,
            "max" : [
                -6.005153179168701,
                1.4899603128433228,
                -11.180392265319824
            ],
            "min" : [
                -9.492989540100098,
                -1.3392791748046875,
                -15.175761222839355
            ],
            "type" : "VEC3"
        },
        {
            "bufferView" : 5,
            "componentType" : 5126,
            "count" : 384,
            "type" : "VEC3"
        },
        {
            "bufferView" : 6,
            "componentType" : 5126,
            "count" : 384,
            "type" : "VEC2"
        },
        {
            "bufferView" : 7,
            "componentType" : 5123,
            "count" : 576,
            "type" : "SCALAR"
        },
        {
            "bufferView" : 8,
            "componentType" : 5126,
            "count" : 384,
            "max" : [
                -3.8541667461395264,
                2.1831138134002686,
                -7.68977165222168
            ],
            "min" : [
                -9.062366485595703,
                -1.323607325553894,
                -12.927375793457031
            ],
            "type" : "VEC3"
        },
        {
            "bufferView" : 9,
            "componentType" : 5126,
            "count" : 384,
            "type" : "VEC3"
        },
        {
            "bufferView" : 10,
            "componentType" : 5126,
            "count" : 384,
            "type" : "VEC2"
        },
        {
            "bufferView" : 11,
            "componentType" : 5123,
            "count" : 576,
            "type" : "SCALAR"
        }
    ],
    "bufferViews" : [
        {
            "buffer" : 0,
            "byteLength" : 4608,
            "byteOffset" : 0
        },
        {
            "buffer" : 0,
            "byteLength" : 4608,
            "byteOffset" : 4608
        },
        {
            "buffer" : 0,
            "byteLength" : 3072,
            "byteOffset" : 9216
        },
        {
            "buffer" : 0,
            "byteLength" : 1152,
            "byteOffset" : 12288
        },
        {
            "buffer" : 0,
            "byteLength" : 4608,
            "byteOffset" : 13440
        },
        {
            "buffer" : 0,
            "byteLength" : 4608,
            "byteOffset" : 18048
        },
        {
            "buffer" : 0,
            "byteLength" : 3072,
            "byteOffset" : 22656
        },
        {
            "buffer" : 0,
            "byteLength" : 1152,
            "byteOffset" : 25728
        },
        {
            "buffer" : 0,
            "byteLength" : 4608,
            "byteOffset" : 26880
        },
        {
            "buffer" : 0,
            "byteLength" : 4608,
            "byteOffset" : 31488
        },
        {
            "buffer" : 0,
            "byteLength" : 3072,
            "byteOffset" : 36096
        },
        {
            "buffer" : 0,
            "byteLength" : 1152,
            "byteOffset" : 39168
        }
    ],
    "buffers" : [
        {
            "byteLength" : 40320,
            "uri" : "data:application/octet-stream;base64,"
        }
    ]
}
